<svg xmlns="http://www.w3.org/2000/svg" xmlns:xlink="http://www.w3.org/1999/xlink" fill="none" version="1.1" width="613" height="334" viewBox="0 0 613 334"><defs><filter id="master_svg0_2_0271" filterUnits="objectBoundingBox" color-interpolation-filters="sRGB" x="0" y="0" width="1" height="1"><feFlood flood-opacity="0" result="BackgroundImageFix"/><feBlend mode="normal" in="SourceGraphic" in2="BackgroundImageFix" result="shape"/><feColorMatrix in="SourceAlpha" type="matrix" result="hardAlpha" values="0 0 0 0 0 0 0 0 0 0 0 0 0 0 0 0 0 0 127 0"/><feOffset dy="3" dx="0"/><feGaussianBlur stdDeviation="13.5"/><feComposite in2="hardAlpha" operator="arithmetic" k2="-1" k3="1"/><feColorMatrix type="matrix" values="0 0 0 0 0.11891593039035797 0 0 0 0 0.409935861825943 0 0 0 0 0.7678571343421936 0 0 0 1 0"/><feBlend mode="normal" in2="shape" result="effect1_innerShadow"/></filter><linearGradient x1="0.5" y1="0" x2="0.5" y2="1" id="master_svg1_2_1477"><stop offset="0%" stop-color="#0E2A50" stop-opacity="1"/><stop offset="100%" stop-color="#193C67" stop-opacity="1"/></linearGradient><linearGradient x1="0.5" y1="0" x2="0.5" y2="1" id="master_svg2_2_750"><stop offset="0%" stop-color="#19A2FF" stop-opacity="1"/><stop offset="54.109591245651245%" stop-color="#14EFB7" stop-opacity="1"/><stop offset="100%" stop-color="#56E6FF" stop-opacity="1"/></linearGradient></defs><g><g filter="url(#master_svg0_2_0271)"><path d="M0.5,333.5L168.5,333.5L185.5,320.5L324.5,320.5L340.5,333.5L612.5,333.5L612.5,14.5L602.5,0.5L340.5,0.5L324.5,14.5L185.5,14.5L168.5,0.5L10.5,0.5L0.5,14.5L0.5,333.5Z" fill="url(#master_svg1_2_1477)" fill-opacity="0.800000011920929"/><path d="M10.242691,2.9999999984209325e-8L0,14.339767L0,334L168.66927,334L185.66928,321L324.32245,321L340.32248,334L613,334L613,14.339767L602.75732,2.9999999984209325e-8L340.31213,2.9999999984209325e-8L324.31213,14L185.67938,14L168.67938,0L10.242691,2.9999999984209325e-8ZM1,14.660233L1,333L168.33072,333L185.33073,320L324.67752,320L340.67755,333L612,333L612,14.660223L602.24268,1L340.68787,1L324.68787,15L185.32062,15L168.32062,1L10.757309,1L1,14.660233Z" fill-rule="evenodd" fill="url(#master_svg2_2_750)" fill-opacity="1"/></g><g><path d="M180.5,3.5L191.5,7.5L322.5,7.5L330.5,3.5L180.5,3.5Z" fill="#5AC1FF" fill-opacity="1"/></g><g transform="matrix(1,0,0,-1,0,663)"><path d="M178.5,331.5L189.5,335.5L320.5,335.5L328.5,331.5L178.5,331.5Z" fill="#5AC1FF" fill-opacity="1"/></g></g></svg>