<svg xmlns="http://www.w3.org/2000/svg" xmlns:xlink="http://www.w3.org/1999/xlink" fill="none" version="1.1" width="546.5029907226562" height="37.5" viewBox="0 0 546.5029907226562 37.5"><defs><linearGradient x1="0.37396448850631714" y1="1.274193525314331" x2="0.7865781293565408" y2="1.0778088628411355" id="master_svg0_2_801"><stop offset="0%" stop-color="#0360BB" stop-opacity="1"/><stop offset="100%" stop-color="#254EBE" stop-opacity="0"/></linearGradient><linearGradient x1="0.5" y1="0" x2="0.5" y2="1" id="master_svg1_2_796"><stop offset="0%" stop-color="#004DC8" stop-opacity="1"/><stop offset="100%" stop-color="#19A2FF" stop-opacity="1"/></linearGradient><linearGradient x1="0.5" y1="0" x2="0.5" y2="1" id="master_svg2_2_791"><stop offset="0%" stop-color="#004DC8" stop-opacity="1"/><stop offset="100%" stop-color="#003A61" stop-opacity="1"/></linearGradient><linearGradient x1="0.5" y1="0" x2="0.5" y2="1" id="master_svg3_2_793"><stop offset="0%" stop-color="#19A2FF" stop-opacity="1"/><stop offset="100%" stop-color="#004DC8" stop-opacity="1"/></linearGradient><linearGradient x1="1" y1="0.5" x2="0" y2="0.5" id="master_svg4_2_788"><stop offset="0%" stop-color="#3B3831" stop-opacity="0"/><stop offset="100%" stop-color="#004DC8" stop-opacity="1"/></linearGradient><linearGradient x1="412.8416042327881" y1="7.5" x2="412.8416042327881" y2="8.5" gradientUnits="userSpaceOnUse" id="master_svg5_2_772"><stop offset="0%" stop-color="#20252B" stop-opacity="0"/><stop offset="100%" stop-color="#20252B" stop-opacity="1"/></linearGradient><filter id="master_svg6_2_0378" filterUnits="objectBoundingBox" color-interpolation-filters="sRGB" x="-0.08695652173913043" y="-0.4" width="1.173913043478261" height="1.8"><feFlood flood-opacity="0" result="BackgroundImageFix"/><feBlend mode="normal" in="SourceGraphic" in2="BackgroundImageFix" result="shape"/><feGaussianBlur stdDeviation="0.5" result="effect1_foregroundBlur"/></filter></defs><g><g><g><g><g><path d="M0.00299072265625,37.5L546.0029907226562,37.5L545.3568707226563,6.5L34.24914572265625,6.5L0.00299072265625,37.5Z" fill="url(#master_svg0_2_801)" fill-opacity="1"/></g><g><path d="M1.295298457145691,37L39.41837545714569,37L20.03376045714569,20L1.295298457145691,37Z" fill="url(#master_svg1_2_796)" fill-opacity="1"/><path d="M20.028119457145692,19.33001477L0.9593405771456909,36.629686L0.00002625714569082227,37.5L40.74683645714569,37.5L20.028119457145692,19.33001477ZM2.5905704571456907,36.5L38.08991545714569,36.5L20.03940245714569,20.66998512L2.5905704571456907,36.5Z" fill-rule="evenodd" fill="#0360BB" fill-opacity="1"/></g><g><path d="M20.03376007080078,20L40.63869707080078,36.940815C40.67924907080078,36.974154999999996,40.73867607080078,36.970461,40.77478807080078,36.932356L69.14145307080078,7L34.24914507080078,7L20.03376007080078,20Z" fill="url(#master_svg2_2_791)" fill-opacity="1"/><path d="M34.05499307080078,6.5L19.270894590800783,20.020088L19.716218770800783,20.386222L40.321155070800785,37.32704Q40.75307607080078,37.682156,41.13770907080078,37.276286999999996L70.30416107080077,6.50000003L34.05499307080078,6.5ZM20.796624900800783,19.979912L40.66829107080078,36.31785L67.97874407080079,7.5L34.44329807080078,7.5L20.796624900800783,19.979912Z" fill-rule="evenodd" fill="url(#master_svg3_2_793)" fill-opacity="1"/></g><g><rect x="41.35683822631836" y="35.5" width="502.70770263671875" height="2" rx="0" fill="url(#master_svg4_2_788)" fill-opacity="1"/></g></g><g transform="matrix(-0.6122308373451233,0.7906790971755981,-0.7906790375709534,-0.6122308969497681,645.9903601375663,-301.81013803503447)"><line x1="397.00286865234375" y1="7" x2="428.6803398132324" y2="7" stroke="url(#master_svg5_2_772)" fill-opacity="0" fill="none" stroke-width="1"/></g></g><g filter="url(#master_svg6_2_0378)"><path d="M522.0029907226562,6.5L540.0029907226562,6.5L545.0029907226562,1.5L527.0029907226562,1.5L522.0029907226562,6.5Z" fill="#19A2FF" fill-opacity="1"/></g></g></g></svg>