<svg xmlns="http://www.w3.org/2000/svg" xmlns:xlink="http://www.w3.org/1999/xlink" fill="none" version="1.1" width="408" height="97" viewBox="0 0 408 97"><defs><filter id="master_svg0_2_0255" filterUnits="objectBoundingBox" color-interpolation-filters="sRGB" x="-0.06388888888888888" y="-0.32653061224489793" width="1.1333333333333333" height="1.9795918367346939"><feFlood flood-opacity="0" result="BackgroundImageFix"/><feColorMatrix in="SourceAlpha" type="matrix" values="0 0 0 0 0 0 0 0 0 0 0 0 0 0 0 0 0 0 127 0"/><feOffset dy="8" dx="1"/><feGaussianBlur stdDeviation="6"/><feColorMatrix type="matrix" values="0 0 0 0 0 0 0 0 0 0 0 0 0 0 0 0 0 0 0.30000001192092896 0"/><feBlend mode="normal" in2="BackgroundImageFix" result="effect1_dropShadow"/><feBlend mode="normal" in="SourceGraphic" in2="effect1_dropShadow" result="shape"/></filter><linearGradient x1="203" y1="16" x2="203" y2="65" gradientUnits="userSpaceOnUse" id="master_svg1_2_0263"><stop offset="0%" stop-color="#FFFFFF" stop-opacity="1"/><stop offset="100%" stop-color="#B7E5FF" stop-opacity="1"/></linearGradient></defs><g filter="url(#master_svg0_2_0255)"><path d="M61.040001,59.400002Q54,57.32,49.699999,54Q45.4,50.68,43,45.760000000000005Q40.6,50.68,36.299999,54Q32,57.32,24.9599999,59.400002L24.9599999,53.799999Q30.6399999,51.720001,33.94,48.919998Q37.24,46.119999,39.279999000000004,41.32L25,41.32L25,36.16L40.32,36.16L40.279999000000004,29.120001000000002L26.8,29.120001000000002L26.8,23.960001L59.200001,23.960001L59.200001,29.120001000000002L45.719999,29.120001000000002L45.719999,36.16L61,36.16L61,41.32L46.719999,41.32Q48.760000000000005,46.119999,52.059999000000005,48.919998Q55.360001,51.720001,61.040001,53.799999L61.040001,59.400002ZM77.279999,38.120001L85.400002,38.120001L85.400002,35.640001L76.759998,35.640001L76.759998,31.16L85.400002,31.16L85.400002,28.720001L77.279999,28.720001L77.279999,24.400001500000002L85.400002,24.400001500000002L85.400002,22.520000500000002L90.519997,22.520000500000002L90.519997,24.400001500000002L99.720001,24.400001500000002L99.720001,30.800001L101.800003,30.800001L101.800003,36.040001000000004L99.720001,36.040001000000004L99.720001,42.400002L90.519997,42.400002L90.519997,44.6L100.399994,44.6L100.399994,49L90.519997,49L90.519997,51.279999L101.360001,51.279999L101.360001,55.84L90.519997,55.84L90.519997,59L85.400002,59L85.400002,55.84L75.32,55.84L75.32,51.279999L85.400002,51.279999L85.400002,49L76.279999,49L76.279999,44.6L85.400002,44.6L85.400002,42.400002L77.279999,42.400002L77.279999,38.120001ZM64.639999,59Q66.560001,54.240002,67.82,50.080002Q69.08000200000001,45.92,69.599998,41.959998999999996L74.95999900000001,41.959998999999996Q73.880001,50.439999,70.47999999999999,59L64.639999,59ZM65,32.4L74.95999900000001,34.760000000000005L74.95999900000001,40.119999L65,37.84L65,32.4ZM65.799999,23L74.880001,25.2399998L74.880001,30.68L65.799999,28.440001000000002L65.799999,23ZM94.760002,38.120001L94.760002,35.640001L90.519997,35.640001L90.519997,38.120001L94.760002,38.120001ZM94.760002,31.16L94.760002,28.720001L90.519997,28.720001L90.519997,31.16L94.760002,31.16ZM141.72,59.639999Q135.39999,56.799999,131.6,51.959999Q127.64,56.68,121.800003,59.200001L121.800003,53.279999Q125.92,51.119999,128.6,47.239999999999995Q126.8,43.760000000000005,125.64,39.440000999999995Q124.48,35.120001,123.6,29.480001L123.84,29.440001000000002L122.839996,29.440001000000002L122.839996,24.200000799999998L140.95999999999998,24.200000799999998L140.16,29.440001000000002L139.92000000000002,29.440001000000002L140.16,29.480001Q139.12,35.120001,137.84,39.519999999999996Q136.56,43.92,134.56,47.559999000000005Q137.16,51.48,141.68,53.720001L141.72,59.639999ZM104.839996,53.48Q109.040001,50.880001,111.559998,47Q109.720001,43.6,108.68,39.32Q107.639999,35.040001000000004,107.040001,29.440001000000002L105.559998,29.440001000000002L105.559998,24.200000799999998L122.199997,24.200000799999998L121.959999,29.440001000000002Q121.400002,34.640001,120.360001,39Q119.32,43.360001,117.400002,47.120001Q118.959999,48.919998,121.279999,50.52L121.279999,56.68Q117.360001,54.439999,114.68,51.48Q110.839996,56.560001,104.839996,59.68L104.839996,53.48ZM112.239998,29.440001000000002Q112.599998,33.880001,113,36.559999000000005Q113.400002,39.240002000000004,114.239998,41.6Q115.239998,38.84,115.739998,35.860001Q116.239998,32.880001,116.479996,29.440001000000002L112.239998,29.440001000000002ZM129.56,32Q130.28,35.720000999999996,130.68,37.519999999999996Q131.07999999999998,39.32,131.64,41.16Q132.56,38.6,133.16,35.780001Q133.76,32.960001,134.28,29.440001000000002L129.07999999999998,29.440001000000002L129.56,32ZM171.92,53.959999L175.8,53.959999L176.04001,45.400002L164.88,45.400002L164.88,25.280000700000002L169.16,25.280000700000002L169.84,22.6000023L175.04001,22.6000023L174.36,25.280000700000002L179.92,25.280000700000002L179.92,40.08L175.56,40.08L175.56,29.68L169.44,29.68L169.44,41.08L180.95999,41.08L180.39999,59L171.92,59L171.92,53.959999ZM144.6,37.440000999999995Q150.2,35,151.92,28.880001L149.28,28.880001L149.28,32.720000999999996L144.84,32.720000999999996L144.84,24.6000004L151.88,24.6000004L151.88,22.6000023L157,22.6000023L157,24.6000004L163.75999,24.6000004L163.75999,32.720000999999996L159.28,32.720000999999996L159.28,28.880001L156.52,28.880001Q155.75999,32.640001,153.52,35.760000000000005L155.56,35.760000000000005L156.28,33.32L160.36,33.32L159.64,35.760000000000005L163.52,35.760000000000005L163.52,40L158.84,40L158.84,42.400002L163.52,42.400002L163.52,46.239999999999995L158.84,46.239999999999995L158.84,48.52L163.52,48.52L163.52,52.360001L158.84,52.360001L158.84,54.759998L163.92,54.759998L163.92,59L146.12,59L146.12,41.959998999999996Q145.32,42.440000999999995,144.6,42.760000000000005L144.6,37.440000999999995ZM154.64,54.759998L154.64,52.360001L151.12,52.360001L151.12,54.759998L154.64,54.759998ZM154.64,48.52L154.64,46.239999999999995L151.12,46.239999999999995L151.12,48.52L154.64,48.52ZM154.64,42.400002L154.64,40L151.12,40L151.12,42.400002L154.64,42.400002ZM164.24001,47.880001L174.72,47.880001L174.72,52.360001L164.24001,52.360001L164.24001,47.880001ZM173.84,31.560001L174.8,39L171.12,39L170.08,31.560001L173.84,31.560001ZM195.75999,59Q198.72,52.32,200.03999,45.880001Q201.36,39.440000999999995,201.44,32.200001L198.8,32.200001L199.95999,23L205.2,23L204.67999,27.08L220.44,27.08L219.75999,59L212.32001,59L212.32001,53.880001L214.75999,53.880001L215.23999,32.200001L213.24001,32.200001Q213.2,39.84,212.28,46.200001Q211.36,52.560001,209.03999,59L203.8,59Q206.32001,52.279999,207.45999,45.84Q208.60001,39.400002,208.64,32.200001L206.03999,32.200001Q206,39.84,204.92,46.200001Q203.84,52.560001,201.08,59L195.75999,59ZM184.39999,40.16Q185,36.360001,185.22,32.440000999999995Q185.44,28.52,185.44,23.8000011L189.32001,23.8000011Q189.32001,27.16,189.24001,28.84L191,28.84L191,23L195.39999,23L195.39999,28.84L198.12,28.84L198.12,34.040001000000004L195.39999,34.040001000000004L195.39999,42.32L198.44,41.68L198.44,47.08L195.39999,47.720000999999996L195.39999,59L190.60001,59L190.60001,48.68L184.60001,49.919998L184.60001,44.519999999999996L190.72,43.280001L190.72,34.040001000000004L189.16,34.040001000000004Q189.03999,36.08,188.56,40.16L184.39999,40.16ZM241.72,53.439999Q245.2,51.68,246.82001,49.459999Q248.44,47.239999999999995,248.84,44.480000000000004L241.60001,44.480000000000004L241.60001,39.6L248.95999,39.6L248.95999,32.760000000000005L242.44,32.760000000000005L242.44,27.880001L244.95999,27.880001L243.88,23L248.75999,23L249.84,27.880001L253.75999,27.880001L254.84,23L259.72,23L258.64,27.880001L261,27.880001L261,32.760000000000005L254.08,32.760000000000005L254.08,39.6L261.44,39.6L261.44,44.480000000000004L254.64,44.480000000000004Q257.60001,47.120001,259.3,50.599998Q261,54.080002,261.60001,58.959999L256.56,58.959999Q256.23999000000003,55.84,255.28,53.580002Q254.32001,51.32,252.52,49.639999Q249.67999,56.200001,241.72,59.48L241.72,53.439999ZM225,52.400002L226.67999,52.080002L226.67999,28.040001L225,28.040001L225,23.4400005L242.12,23.4400005L242.12,28.040001L240.44,28.040001L240.44,59L235.67999,59L235.67999,55.279999L225,57.279999L225,52.400002ZM235.67999,50.400002L235.67999,46.279999000000004L231.44,46.279999000000004L231.44,51.200001L235.67999,50.400002ZM235.67999,41.68L235.67999,37.16L231.44,37.16L231.44,41.68L235.67999,41.68ZM235.67999,32.560001L235.67999,28.040001L231.44,28.040001L231.44,32.560001L235.67999,32.560001ZM265.91999999999996,23.960001L300.07999,23.960001L300.07999,59L295,59L295,56.560001L290.95999,56.560001L288.32001,48.439999L285.67999,56.560001L280.32001,56.560001L277.67999,48.439999L275.03999,56.560001L271,56.560001L271,59L265.91999999999996,59L265.91999999999996,23.960001ZM274.91999999999996,42.519999999999996L271.08000000000004,30.880001L275.8,30.880001L277.91999999999996,37.68L280.07999,30.880001L286.39999,30.880001L288.56,37.720000999999996L290.72,30.880001L295,30.880001L295,29.120001000000002L271,29.120001000000002L271,54.48L274.91999999999996,42.519999999999996ZM283,50.360001L285.56,42.519999999999996L283.07999,35.040001000000004L280.51999,42.799999L283,50.360001ZM295,54.48L295,31.240000000000002L291.16,42.799999L295,54.48ZM304.60001,41.360001L320.39999,41.360001L320.39999,28.720001L305.44,28.720001L305.44,23.6800003L340.56,23.6800003L340.56,28.720001L325.60001,28.720001L325.60001,41.360001L341.39999,41.360001L341.39999,46.400002L325.60001,46.400002L325.60001,59L320.39999,59L320.39999,46.400002L304.60001,46.400002L304.60001,41.360001ZM313.12,30.6L315.64001,39.560001L310.32001,39.560001L307.79999,30.6L313.12,30.6ZM332.88,30.6L338.20001,30.6L335.67999,39.560001L330.35999,39.560001L332.88,30.6ZM377.91998,58.439999L348.07999,58.439999L348.07999,41.440000999999995L377.91998,41.440000999999995L377.91998,58.439999ZM346.48001,33.08L350,33.08L356.95999,23L363.76001,23L356.79999,33.08L371.04001,33.08L368.44,28L374.84,28L380.04001,38.200001L346.48001,38.200001L346.48001,33.08ZM372.67999,53.439999L372.67999,46.480000000000004L353.32001,46.480000000000004L353.32001,53.439999L372.67999,53.439999Z" fill="url(#master_svg1_2_0263)" fill-opacity="1"/></g></svg>