<svg xmlns="http://www.w3.org/2000/svg" xmlns:xlink="http://www.w3.org/1999/xlink" fill="none" version="1.1" width="1923.3466796875" height="142.87332153320312" viewBox="0 0 1923.3466796875 142.87332153320312"><defs><linearGradient x1="0.5" y1="0" x2="0.5" y2="1" id="master_svg0_2_524"><stop offset="0%" stop-color="#07275A" stop-opacity="1"/><stop offset="100%" stop-color="#021F4D" stop-opacity="1"/></linearGradient><linearGradient x1="0.5" y1="0" x2="0.5" y2="1" id="master_svg1_2_526"><stop offset="0%" stop-color="#0030B5" stop-opacity="1"/><stop offset="100%" stop-color="#124D75" stop-opacity="1"/></linearGradient><linearGradient x1="0.5" y1="0" x2="0.5" y2="1" id="master_svg2_2_513"><stop offset="0%" stop-color="#15386A" stop-opacity="1"/><stop offset="100%" stop-color="#2657A4" stop-opacity="1"/></linearGradient><linearGradient x1="0.5" y1="0" x2="0.5" y2="1" id="master_svg3_2_515"><stop offset="0%" stop-color="#5484BF" stop-opacity="1"/><stop offset="100%" stop-color="#5484BF" stop-opacity="0"/></linearGradient><linearGradient x1="0.5" y1="0" x2="0.5" y2="1" id="master_svg4_2_518"><stop offset="0%" stop-color="#2E7AC9" stop-opacity="1"/><stop offset="100%" stop-color="#1B3F76" stop-opacity="1"/></linearGradient><linearGradient x1="0.5" y1="0" x2="0.5" y2="1" id="master_svg5_2_505"><stop offset="0%" stop-color="#1E4D86" stop-opacity="1"/><stop offset="100%" stop-color="#13315E" stop-opacity="1"/></linearGradient><linearGradient x1="0.5" y1="0" x2="0.5" y2="1" id="master_svg6_2_507"><stop offset="0%" stop-color="#4A8FE2" stop-opacity="0"/><stop offset="48.630136251449585%" stop-color="#4A8FE2" stop-opacity="0.5136986374855042"/><stop offset="100%" stop-color="#4A8FE2" stop-opacity="0"/></linearGradient><linearGradient x1="0.5" y1="0" x2="0.5" y2="1" id="master_svg7_2_510"><stop offset="0%" stop-color="#314F7C" stop-opacity="1"/><stop offset="100%" stop-color="#2D4B7B" stop-opacity="1"/></linearGradient><linearGradient x1="0.5" y1="0" x2="0.5" y2="1" id="master_svg8_2_513"><stop offset="0%" stop-color="#15386A" stop-opacity="1"/><stop offset="100%" stop-color="#2657A4" stop-opacity="1"/></linearGradient><linearGradient x1="0.5" y1="0" x2="0.5" y2="1" id="master_svg9_2_515"><stop offset="0%" stop-color="#5484BF" stop-opacity="1"/><stop offset="100%" stop-color="#5484BF" stop-opacity="0"/></linearGradient><linearGradient x1="0.5" y1="0" x2="0.5" y2="1" id="master_svga_2_518"><stop offset="0%" stop-color="#2E7AC9" stop-opacity="1"/><stop offset="100%" stop-color="#1B3F76" stop-opacity="1"/></linearGradient><linearGradient x1="0.5" y1="0" x2="0.5" y2="1" id="master_svgb_2_505"><stop offset="0%" stop-color="#1E4D86" stop-opacity="1"/><stop offset="100%" stop-color="#13315E" stop-opacity="1"/></linearGradient><linearGradient x1="0.5" y1="0" x2="0.5" y2="1" id="master_svgc_2_507"><stop offset="0%" stop-color="#4A8FE2" stop-opacity="0"/><stop offset="48.630136251449585%" stop-color="#4A8FE2" stop-opacity="0.5136986374855042"/><stop offset="100%" stop-color="#4A8FE2" stop-opacity="0"/></linearGradient><linearGradient x1="0.5" y1="0" x2="0.5" y2="1" id="master_svgd_2_510"><stop offset="0%" stop-color="#314F7C" stop-opacity="1"/><stop offset="100%" stop-color="#2D4B7B" stop-opacity="1"/></linearGradient><linearGradient x1="0.5" y1="0" x2="0.5" y2="1" id="master_svge_2_532"><stop offset="0%" stop-color="#082D64" stop-opacity="1"/><stop offset="100%" stop-color="#2878B9" stop-opacity="1"/></linearGradient><linearGradient x1="1.0059808492660522" y1="0" x2="0.006279530469328165" y2="0" id="master_svgf_2_534"><stop offset="0%" stop-color="#BAE6FF" stop-opacity="0"/><stop offset="58.21917653083801%" stop-color="#BAE7FF" stop-opacity="1"/><stop offset="96.42857313156128%" stop-color="#AFAFAF" stop-opacity="0"/></linearGradient><filter id="master_svgg_2_496" filterUnits="objectBoundingBox" color-interpolation-filters="sRGB" x="-0.2962962962962963" y="-0.8888888888888888" width="1.5925925925925926" height="2.7777777777777777"><feFlood flood-opacity="0" result="BackgroundImageFix"/><feBlend mode="normal" in="SourceGraphic" in2="BackgroundImageFix" result="shape"/><feGaussianBlur stdDeviation="1" result="effect1_foregroundBlur"/></filter><filter id="master_svgh_2_492" filterUnits="objectBoundingBox" color-interpolation-filters="sRGB" x="-0.2962962962962963" y="-0.8888888888888888" width="1.5925925925925926" height="2.7777777777777777"><feFlood flood-opacity="0" result="BackgroundImageFix"/><feBlend mode="normal" in="SourceGraphic" in2="BackgroundImageFix" result="shape"/><feGaussianBlur stdDeviation="1" result="effect1_foregroundBlur"/></filter><filter id="master_svgi_4_413" filterUnits="objectBoundingBox" color-interpolation-filters="sRGB" x="-0.2962962962962963" y="-0.8888888888888888" width="1.5925925925925926" height="2.7777777777777777"><feFlood flood-opacity="0" result="BackgroundImageFix"/><feBlend mode="normal" in="SourceGraphic" in2="BackgroundImageFix" result="shape"/><feGaussianBlur stdDeviation="1" result="effect1_foregroundBlur"/></filter><filter id="master_svgj_4_409" filterUnits="objectBoundingBox" color-interpolation-filters="sRGB" x="-0.2962962962962963" y="-0.8888888888888888" width="1.5925925925925926" height="2.7777777777777777"><feFlood flood-opacity="0" result="BackgroundImageFix"/><feBlend mode="normal" in="SourceGraphic" in2="BackgroundImageFix" result="shape"/><feGaussianBlur stdDeviation="1" result="effect1_foregroundBlur"/></filter></defs><g><g><path d="M1,19.717117309570312Q781,215.7248073095703,1555.5,97.22480730957031C1858.084,38.45138130957031,1902.8267,35.644153309570314,1921,16.717117309570312L1,16.72480773927031L1,19.717117309570312Z" fill="url(#master_svg0_2_524)" fill-opacity="1"/><path d="M1923.3466,15.717108009570312L-1.0000000005838672e-7,15.724811669570313L0,16.72480773927031L0,20.49691580957031L0.75628528,20.686964509570313Q780.95184,216.7437873095703,1555.6512,98.21330230957031L1555.6711,98.2102813095703L1555.6908,98.20646630957032Q1635.781,82.64988730957032,1746.0562,61.963066309570316Q1853.5424,41.79945030957031,1878.9257,35.60997730957031Q1897.5664,31.064603309570312,1907.244,26.886692309570314Q1916.4292,22.921344709570313,1921.7214,17.409726559570313L1923.3466,15.717108009570312ZM2,17.724803709570313L2,18.937245109570313Q781.40356,214.6433273095703,1555.3092,96.2423863095703Q1555.3291,96.23934930957031,1555.3489,96.2363133095703Q1635.4296,80.6809163095703,1745.6874,59.997356309570314Q1853.1204,39.84375030957031,1878.4517,33.66690830957032Q1896.929,29.16139230957031,1906.4514,25.050493209570313Q1913.8043,21.876208309570313,1918.5116,17.717127309570312L2,17.724803709570313Z" fill-rule="evenodd" fill="url(#master_svg1_2_526)" fill-opacity="1"/></g><g></g><g><g><path d="M98,16.724807739257812Q160.5,31.224807739257812,202.5,38.72480773925781C244.5,46.22480773925781,303,48.72480773925781,323.5,52.22480773925781C344,55.72480773925781,587,91.22480773925781,617,95.22480773925781Q647,99.22480773925781,685.5,96.22480773925781Q665.5,91.22480773925781,656.5,87.72480773925781C647.5,84.22480773925781,524,58.72480773925781,507,56.72480773925781C490,54.72480773925781,459,51.72480773925781,437.5,46.22480773925781Q416,40.72480773925781,383,16.724807739257812L98,16.724807739257812Z" fill="url(#master_svg2_2_513)" fill-opacity="1"/><path d="M383.48776,15.224807739257812L383,15.224807739257812L84.897249,15.224808139257812L97.66100353,18.185999539257814Q160.198479,32.69469473925781,202.23631,40.20144873925781Q227.48064,44.70936373925781,283.95122000000003,49.60936773925781Q315.09775,52.31198073925781,323.24756,53.70341073925781L470.79807,75.65457873925781L616.78589,96.7094497392578Q646.95868,100.73257473925781,685.61652,97.72027573925781L694.80316,97.00443273925781L685.86383,94.76959273925782Q665.95544,89.79248773925781,657.04364,86.32679773925781Q650.25854,83.68815573925781,585.05399,70.19343573925781Q520.15665,56.76230273925781,507.17526,55.23508073925781Q504.79691,54.95527673925781,499.28555,54.33316773925781Q456.26694,49.47734873925781,437.87177,44.77160473925781Q416.64999,39.34277873925781,383.88226,15.511703639257812L383.48776,15.224807739257812ZM382.51273,18.224807739257812L111.208941,18.224807739257812Q165.200211,30.540403739257812,202.76369,37.24816673925781Q227.8748,41.73229373925781,284.21056,46.62059973925781Q315.4805,49.333919739257816,323.75244,50.74620473925781L471.23953,72.68723273925781L617.21411,93.74016573925782Q643.39282,97.23058273925781,676.13074,95.35604873925782Q662.86469,91.80938673925782,655.95636,89.12281773925781Q649.40503,86.57508073925781,584.44601,73.13117973925782Q519.6765700000001,59.726512739257814,506.82474,58.214534739257815Q504.45328,57.93553973925781,498.94907,57.314239739257815Q455.72433,52.435153739257814,437.12823,47.678010739257815Q415.47958,42.13998173925781,382.51273,18.224807739257812Z" fill-rule="evenodd" fill="url(#master_svg3_2_515)" fill-opacity="1"/></g><g><path d="M382.5,16.724807739257812Q395.75,24.724807739257812,408,32.72480773925781Q416.75,36.97480773925781,424.5,41.22480773925781C440,49.72480773925781,487,53.22480773925781,513,57.72480773925781Q539,62.22480773925781,653,86.72480773925781Q615,72.22480773925781,593.5,64.72480773925781Q569,55.47480773925781,560.5,52.72480773925781C543.5,47.22480773925781,509,39.72480773925781,496,33.72480773925781Q483,27.724807739257812,472,16.724807739257812L382.5,16.724807739257812Z" fill="url(#master_svg4_2_518)" fill-opacity="1"/></g><g><path d="M472,16.224807739257812Q476.5,23.224807739257812,495,33.72480773925781Q497.75,34.97480773925781,512.5,39.22480773925781Q562,52.72480773925781,572,56.72480773925781L639,81.22480773925781Q618.5,69.72480773925781,587.5,50.72480773925781Q556.5,31.724807739257812,530,16.224807739257812L472,16.224807739257812Z" fill="url(#master_svg5_2_505)" fill-opacity="1"/><path d="M494.793098,34.17999273925781Q497.576401,35.44512973925781,512.361565,39.70526073925781L512.368443,39.707189739257814Q561.840866,53.19966873925781,571.814301,57.189048739257814L571.821259,57.191825739257816L644.6613199999999,83.82737773925781L639.24463,80.78874173925782Q618.75305,69.29346473925781,587.7612799999999,50.298507739257815Q556.756821,31.295775739257813,530.252441,15.793213899257813L530.13549,15.724807739257812L471.08416724,15.724807739257812L471.57941073,16.495186539257812Q476.1460376,23.598828339257814,494.753197,34.15965073925781L494.772694,34.170715739257815L494.793098,34.17999273925781ZM572.1787400000001,56.25778573925781Q562.142708,52.24555573925781,512.638451,38.74430673925781Q512.636761,38.74387173925781,512.635086,38.74338873925781Q512.633331,38.74288373925781,512.631577,38.74237773925781Q497.976997,34.519767739257816,495.227016,33.27873373925782Q477.8641453,23.421906039257813,472.95126694,16.724807739257812L529.864506,16.724807739257812Q556.311455,32.19568573925781,587.2387200000001,51.15110773925781Q614.37312,67.78186773925782,633.46732,78.66927673925781L572.18578,56.26036073925781L572.1787400000001,56.25778573925781Z" fill-rule="evenodd" fill="url(#master_svg6_2_507)" fill-opacity="1"/></g><g><path d="M529,16.724807739257812Q568.5,39.59980773925781,590.5,52.72480773925781C612.5,65.84980773925781,607,63.22480773925781,617,69.22480773925781Q632.15848,78.31989273925781,646,83.72480773925781Q665,91.22480773925781,690,97.72480773925781Q664.924,76.63373173925781,647,64.22480773925781Q634,55.22480773925781,617,45.22480773925781Q601,34.72480773925781,565.5,16.724807739257812L529,16.724807739257812Z" fill="url(#master_svg7_2_510)" fill-opacity="1"/></g></g><g transform="matrix(-1,0,0,1,3638,0)"><g><path d="M1819,15.224807739257812Q1881.5,29.724807739257812,1923.5,37.22480773925781C1965.5,44.72480773925781,2024,47.22480773925781,2044.5,50.72480773925781C2065,54.22480773925781,2308,89.72480773925781,2338,93.72480773925781Q2368,97.72480773925781,2406.5,94.72480773925781Q2386.5,89.72480773925781,2377.5,86.22480773925781C2368.5,82.72480773925781,2245,57.22480773925781,2228,55.22480773925781C2211,53.22480773925781,2180,50.22480773925781,2158.5,44.72480773925781Q2137,39.22480773925781,2104,15.224807739257812L1819,15.224807739257812Z" fill="url(#master_svg8_2_513)" fill-opacity="1"/><path d="M2104.48776,13.724807739257812L2104,13.724807739257812L1805.897249,13.724808139257812L1818.66100353,16.685999539257814Q1881.198479,31.194694739257812,1923.23631,38.70144873925781Q1948.48064,43.20936373925781,2004.95122,48.10936773925781Q2036.09775,50.81198073925781,2044.24756,52.20341073925781L2191.79807,74.15457873925781L2337.78589,95.2094497392578Q2367.9586799999997,99.23257473925781,2406.61652,96.22027573925781L2415.80316,95.50443273925781L2406.8638300000002,93.26959273925782Q2386.9554399999997,88.29248773925781,2378.04364,84.82679773925781Q2371.25854,82.18815573925781,2306.05399,68.69343573925781Q2241.15665,55.26230273925781,2228.17526,53.73508073925781Q2225.79691,53.45527673925781,2220.28555,52.83316773925781Q2177.26694,47.97734873925781,2158.87177,43.27160473925781Q2137.64999,37.84277873925781,2104.88226,14.011703639257812L2104.48776,13.724807739257812ZM2103.51273,16.724807739257812L1832.208941,16.724807739257812Q1886.200211,29.040403739257812,1923.76369,35.74816673925781Q1948.8748,40.23229373925781,2005.21056,45.12059973925781Q2036.4805000000001,47.833919739257816,2044.75244,49.24620473925781L2192.23953,71.18723273925781L2338.21411,92.24016573925782Q2364.39282,95.73058273925781,2397.13074,93.85604873925782Q2383.86469,90.30938673925782,2376.95636,87.62281773925781Q2370.40503,85.07508073925781,2305.44601,71.63117973925782Q2240.67657,58.226512739257814,2227.82474,56.714534739257815Q2225.45328,56.43553973925781,2219.94907,55.814239739257815Q2176.72433,50.935153739257814,2158.12823,46.178010739257815Q2136.47958,40.63998173925781,2103.51273,16.724807739257812Z" fill-rule="evenodd" fill="url(#master_svg9_2_515)" fill-opacity="1"/></g><g><path d="M2103.5,15.224807739257812Q2116.75,23.224807739257812,2129,31.224807739257812Q2137.75,35.47480773925781,2145.5,39.72480773925781C2161,48.22480773925781,2208,51.72480773925781,2234,56.22480773925781Q2260,60.72480773925781,2374,85.22480773925781Q2336,70.72480773925781,2314.5,63.22480773925781Q2290,53.97480773925781,2281.5,51.22480773925781C2264.5,45.72480773925781,2230,38.22480773925781,2217,32.22480773925781Q2204,26.224807739257812,2193,15.224807739257812L2103.5,15.224807739257812Z" fill="url(#master_svga_2_518)" fill-opacity="1"/></g><g><path d="M2193,14.724807739257812Q2197.5,21.724807739257812,2216,32.22480773925781Q2218.75,33.47480773925781,2233.5,37.72480773925781Q2283,51.22480773925781,2293,55.22480773925781L2360,79.72480773925781Q2339.5,68.22480773925781,2308.5,49.22480773925781Q2277.5,30.224807739257812,2251,14.724807739257812L2193,14.724807739257812Z" fill="url(#master_svgb_2_505)" fill-opacity="1"/><path d="M2215.793098,32.67999273925781Q2218.576401,33.94512973925781,2233.361565,38.20526073925781L2233.368443,38.207189739257814Q2282.840866,51.69966873925781,2292.814301,55.689048739257814L2292.821259,55.691825739257816L2365.66132,82.32737773925781L2360.24463,79.28874173925782Q2339.75305,67.79346473925781,2308.76128,48.798507739257815Q2277.756821,29.795775739257813,2251.252441,14.293213899257813L2251.13549,14.224807739257812L2192.08416724,14.224807739257812L2192.57941073,14.995186539257812Q2197.1460376,22.098828339257814,2215.753197,32.65965073925781L2215.7726940000002,32.670715739257815L2215.793098,32.67999273925781ZM2293.17874,54.75778573925781Q2283.142708,50.74555573925781,2233.638451,37.24430673925781Q2233.636761,37.24387173925781,2233.6350860000002,37.24338873925781Q2233.633331,37.24288373925781,2233.631577,37.24237773925781Q2218.976997,33.019767739257816,2216.227016,31.778733739257813Q2198.8641453,21.921906039257813,2193.95126694,15.224807739257812L2250.864506,15.224807739257812Q2277.311455,30.69568573925781,2308.23872,49.65110773925781Q2335.37312,66.28186773925782,2354.46732,77.16927673925781L2293.18578,54.76036073925781L2293.17874,54.75778573925781Z" fill-rule="evenodd" fill="url(#master_svgc_2_507)" fill-opacity="1"/></g><g><path d="M2250,15.224807739257812Q2289.5,38.09980773925781,2311.5,51.22480773925781C2333.5,64.34980773925781,2328,61.72480773925781,2338,67.72480773925781Q2353.15848,76.81989273925781,2367,82.22480773925781Q2386,89.72480773925781,2411,96.22480773925781Q2385.924,75.13373173925781,2368,62.72480773925781Q2355,53.72480773925781,2338,43.72480773925781Q2322,33.22480773925781,2286.5,15.224807739257812L2250,15.224807739257812Z" fill="url(#master_svgd_2_510)" fill-opacity="1"/></g></g><g><path d="M575.037445,1.5019717192578126C564.422928,1.3124543992578124,560.693024,15.826529739257813,570.035881,20.86785473925781Q639.9144,58.57370773925781,678,88.72480773925781Q725.10001,126.0123077392578,821.30542,122.86003773925782C823.6890900000001,122.78193773925781,825.96048,121.83292773925781,827.70816,120.21008773925782L836.12241,112.39687773925782C837.9720500000001,110.67933773925782,840.4028000000001,109.72480773925781,842.92691,109.72480773925781L1081.07312,109.72480773925781C1083.5972299999999,109.72480773925781,1086.0279500000001,110.67933773925782,1087.87762,112.39687773925782L1096.12238,120.05273773925781C1097.9720499999999,121.7702777392578,1100.37372,122.72818773925782,1102.89777,122.7136377392578Q1188.88123,122.21808773925781,1228,99.72480773925781C1268,76.72480773925781,1344,15.724807739257812,1358,15.724807739257812Q1358.2293100000002,15.724807739257812,1358.22937,15.720783739257813Q1358.23352,15.485574739257812,575.037445,1.5019717192578126Z" fill="url(#master_svge_2_532)" fill-opacity="1"/><path d="M1333.53052,29.863937739257814Q1353.0383299999999,17.224807739257812,1358,17.224807739257812L1358.02631,17.224576739257813L1358.25568,17.220554739257814Q1358.32935,17.219260739257813,1358.4025299999998,17.210754739257812Q1358.4757100000002,17.202245739257812,1358.54767,17.186603739257812Q1358.6197499999998,17.170961739257812,1358.68982,17.14833673925781Q1358.76001,17.125711739257813,1358.82751,17.096320739257813Q1358.89514,17.066932739257812,1358.95947,17.031059739257813Q1359.0238,16.995187739257812,1359.08435,16.95317873925781Q1359.14496,16.911170739257813,1359.20111,16.863431739257813Q1359.2572599999999,16.815690739257814,1359.30841,16.762675739257812Q1359.35962,16.70966473925781,1359.4054,16.65188973925781Q1359.45117,16.59411473925781,1359.4909699999998,16.53213273925781Q1359.53088,16.47015373925781,1359.5644499999999,16.404565739257812Q1359.59802,16.338977739257814,1359.625,16.270412739257814Q1359.6521,16.201848739257812,1359.6722399999999,16.130966739257815Q1359.69238,16.060085739257815,1359.70544,15.987569739257813Q1359.7186299999998,15.915055739257813,1359.72449,15.841605739257812Q1359.73047,15.768153739257812,1359.7291300000002,15.694474739257812Q1359.72784,15.622472739257812,1359.71973,15.550922739257812Q1359.71155,15.479372739257812,1359.69666,15.408934739257813Q1359.68164,15.338493739257812,1359.6599700000002,15.269811739257813Q1359.63831,15.201129739257812,1359.61017,15.134838739257813Q1359.58203,15.068546739257812,1359.54773,15.005254739257813Q1359.5133700000001,14.941962739257812,1359.47314,14.882253739257813Q1359.43286,14.822542739257813,1359.38708,14.766963739257813Q1359.34125,14.711384739257813,1359.29034,14.660447739257812Q1359.23938,14.609510739257813,1359.1838400000001,14.563685739257812Q1359.1282999999999,14.517860739257813,1359.06866,14.477567739257813Q1359.00891,14.437273739257812,1358.94568,14.402883739257813Q1358.88245,14.368491739257813,1358.8161599999999,14.340321739257812Q1358.7498799999998,14.312148739257813,1358.68127,14.290456739257813Q1358.61255,14.268764739257813,1358.54218,14.253750739257812Q1358.47168,14.238734739257813,1358.40015,14.230536739257813Q1358.32861,14.222337739257812,1358.25659,14.221030739257813L575.064682,0.0022190792578125063Q570.700542,-0.07570070074218749,567.504169,2.5863953392578125Q564.588219,5.0149407392578125,563.600113,8.849001839257813Q562.612902,12.679586739257813,563.983952,16.228972739257813Q565.485867,20.117147739257813,569.323574,22.18794073925781Q639.08638,59.83134873925781,677.06894,89.9008787392578Q724.5998500000001,127.52950773925781,821.35455,124.35924773925781Q825.59384,124.22033773925781,828.72882,121.30927773925781L837.1431,113.49606773925781Q839.58905,111.22480773925781,842.92691,111.22480773925781L1081.07312,111.22480773925781Q1084.41095,111.22480773925781,1086.85693,113.49606773925781L1095.10168,121.15192773925781Q1098.4267,124.23943773925781,1102.90643,124.21361773925781Q1189.28571,123.71577773925782,1228.74768,101.02516773925781Q1245.70319,91.27574173925781,1291.43121,58.929687739257815Q1321.53021,37.63893873925781,1333.53052,29.863937739257814ZM1349.4472700000001,17.061591739257814L575.010223,3.0017247392578126Q568.236259,2.8807788392578124,566.505188,9.597691539257813Q564.771942,16.323042739257815,570.748188,19.547773739257813Q640.74243,57.31606273925781,678.93106,87.54873673925782Q725.60019,124.49511773925781,821.25629,121.3608477392578Q824.37451,121.25866773925782,826.6875,119.11089773925781L835.10172,111.29768773925781Q838.41095,108.22480773925781,842.92691,108.22480773925781L1081.07312,108.22480773925781Q1085.58905,108.22480773925781,1088.89832,111.29767773925781L1097.14307,118.95354773925781Q1099.5974700000002,121.23263773925781,1102.8890999999999,121.21365773925781Q1188.47675,120.72038773925782,1227.25232,98.4244457392578Q1244.0856899999999,88.74525473925782,1289.69879,56.480483739257814Q1319.84784,35.154330739257816,1331.8992899999998,27.34619173925781Q1342.7348,20.325877739257812,1349.4472700000001,17.061591739257814Z" fill-rule="evenodd" fill="url(#master_svgf_2_534)" fill-opacity="1"/></g><g><path d="M836,123.22480773925781L1088,123.22480773925781L1080,116.72480773925781L842,116.72480773925781L836,123.22480773925781Z" fill="#1A5DA2" fill-opacity="1"/></g><g><path d="M928,116.72480773925781L934,122.72480773925781L989,122.72480773925781L994.5,116.72480773925781L928,116.72480773925781Z" fill="#3BF8FF" fill-opacity="1"/></g><g><g><path d="M1098,111.72480773925781L1100.5,116.22480773925781L1111.5,116.22480773925781L1108.5,111.72480773925781L1098,111.72480773925781Z" fill="#3EE2FF" fill-opacity="1"/></g><g><path d="M1113.5,111.72480773925781L1116,116.22480773925781L1127,116.22480773925781L1124,111.72480773925781L1113.5,111.72480773925781Z" fill="#7EF5FF" fill-opacity="1"/></g></g><g><g><path d="M348,22.724807739257812L350.5,27.224807739257812L361.5,27.224807739257812L358.5,22.724807739257812L348,22.724807739257812Z" fill="#4BA1BA" fill-opacity="1"/></g><g filter="url(#master_svgg_2_496)"><path d="M333,22.724807739257812L335.5,27.224807739257812L346.5,27.224807739257812L343.5,22.724807739257812L333,22.724807739257812Z" fill="#225D79" fill-opacity="1"/></g><g><path d="M364,22.724807739257812L366.5,27.224807739257812L377.5,27.224807739257812L374.5,22.724807739257812L364,22.724807739257812Z" fill="#7EF5FF" fill-opacity="1"/></g></g><g transform="matrix(-1,0,0,1,3163,0)"><g><path d="M1596.5,22.724807739257812L1599,27.224807739257812L1610,27.224807739257812L1607,22.724807739257812L1596.5,22.724807739257812Z" fill="#4BA1BA" fill-opacity="1"/></g><g filter="url(#master_svgh_2_492)"><path d="M1581.5,22.724807739257812L1584,27.224807739257812L1595,27.224807739257812L1592,22.724807739257812L1581.5,22.724807739257812Z" fill="#225D79" fill-opacity="1"/></g><g><path d="M1612.5,22.724807739257812L1615,27.224807739257812L1626,27.224807739257812L1623,22.724807739257812L1612.5,22.724807739257812Z" fill="#7EF5FF" fill-opacity="1"/></g></g><g transform="matrix(-1,0,0,1,1650,0)"><g><path d="M825,111.72480773925781L827.5,116.22480773925781L838.5,116.22480773925781L835.5,111.72480773925781L825,111.72480773925781Z" fill="#3EE2FF" fill-opacity="1"/></g><g><path d="M840.5,111.72480773925781L843,116.22480773925781L854,116.22480773925781L851,111.72480773925781L840.5,111.72480773925781Z" fill="#7EF5FF" fill-opacity="1"/></g></g><g><g><path d="M109,89.72480773925781L111.5,94.22480773925781L122.5,94.22480773925781L119.5,89.72480773925781L109,89.72480773925781Z" fill="#4BA1BA" fill-opacity="1"/></g><g filter="url(#master_svgi_4_413)"><path d="M94,89.72480773925781L96.5,94.22480773925781L107.5,94.22480773925781L104.5,89.72480773925781L94,89.72480773925781Z" fill="#225D79" fill-opacity="1"/></g><g><path d="M125,89.72480773925781L127.5,94.22480773925781L138.5,94.22480773925781L135.5,89.72480773925781L125,89.72480773925781Z" fill="#7EF5FF" fill-opacity="1"/></g></g><g><g><path d="M1798,89.72480773925781L1800.5,94.22480773925781L1811.5,94.22480773925781L1808.5,89.72480773925781L1798,89.72480773925781Z" fill="#4BA1BA" fill-opacity="1"/></g><g filter="url(#master_svgj_4_409)"><path d="M1783,89.72480773925781L1785.5,94.22480773925781L1796.5,94.22480773925781L1793.5,89.72480773925781L1783,89.72480773925781Z" fill="#225D79" fill-opacity="1"/></g><g><path d="M1814,89.72480773925781L1816.5,94.22480773925781L1827.5,94.22480773925781L1824.5,89.72480773925781L1814,89.72480773925781Z" fill="#7EF5FF" fill-opacity="1"/></g></g></g></svg>