<svg xmlns="http://www.w3.org/2000/svg" xmlns:xlink="http://www.w3.org/1999/xlink" fill="none" version="1.1" width="113.6683349609375" height="33.5" viewBox="0 0 113.6683349609375 33.5"><defs><linearGradient x1="0.5" y1="0" x2="0.5" y2="1" id="master_svg0_2_0017"><stop offset="0%" stop-color="#073164" stop-opacity="1"/><stop offset="100%" stop-color="#061832" stop-opacity="1"/></linearGradient></defs><g><g><g><path d="M2.530622630421753,16.322242710647583L15.506957760421752,31.718804710647582L15.581873760421752,31.807692710647583L97.63462476042176,31.807692710647583L111.14229576042175,16.316851710647583L96.78253676042175,1.692307710647583L15.586145760421752,1.692307680647583L2.530622630421753,16.322242710647583ZM15.814365760421753,31.307692710647583L3.192409220421753,16.331604710647582L15.810093760421752,2.192307710647583L96.57275076042175,2.192307710647583L110.46133576042175,16.336996710647583L97.40722376042176,31.307692710647583L15.814365760421753,31.307692710647583Z" fill-rule="evenodd" fill="#66E4FF" fill-opacity="0.5"/></g><g><path d="M-0.000006470937500002716,16.27389L14.5228760390625,33.411625L14.5977650390625,33.5L98.5945890390625,33.5L113.6682750390625,16.27354L98.5439830390625,0L14.6020350390625,0L-0.000006470937500002716,16.27389ZM14.8294390390625,33L0.6633365790625,16.283278L14.8251700390625,0.5L98.3260730390625,0.5L112.9950550390625,16.28363L98.3677060390625,33L14.8294390390625,33Z" fill-rule="evenodd" fill="#66E4FF" fill-opacity="0.5"/></g><g><path d="M5.391366481781006,16.750000421295166L16.775695481781007,29.865385421295166L96.044351481781,29.865385421295166L107.85031648178101,16.750000421295166L96.044351481781,3.634615421295166L16.775695481781007,3.634615421295166L5.391366481781006,16.750000421295166Z" fill="url(#master_svg0_2_0017)" fill-opacity="1"/><path d="M4.7292775517810055,16.750000421295166L16.398102481781006,30.193140421295166L16.547612481781005,30.365385421295166L96.26700748178101,30.365385421295166L108.52305648178101,16.750000421295166L96.26700748178101,3.134615421295166L16.547612481781005,3.134615451295166L4.7292775517810055,16.750000421295166ZM17.003777481781007,29.365385421295166L6.053455771781006,16.750000421295166L17.003777481781007,4.134615421295166L95.82169448178101,4.134615421295166L107.177586481781,16.750000421295166L95.82169448178101,29.365385421295166L17.003777481781007,29.365385421295166Z" fill-rule="evenodd" fill="#40B4CD" fill-opacity="1"/></g></g></g></svg>