<svg xmlns="http://www.w3.org/2000/svg" xmlns:xlink="http://www.w3.org/1999/xlink" fill="none" version="1.1" width="114.3365478515625" height="34" viewBox="0 0 114.3365478515625 34"><defs><linearGradient x1="0.5" y1="0" x2="0.5" y2="1" id="master_svg0_2_0036"><stop offset="0%" stop-color="#0C4C99" stop-opacity="1"/><stop offset="100%" stop-color="#0F74CD" stop-opacity="1"/></linearGradient></defs><g><g><g><path d="M2.862287669484253,16.572242710647583L15.838622799484252,31.968804710647582L15.913538799484252,32.057692710647586L97.96628979948426,32.057692710647586L111.47396079948425,16.566851710647583L97.11420179948425,1.942307710647583L15.917810799484252,1.942307680647583L2.862287669484253,16.572242710647583ZM16.14603079948425,31.557692710647583L3.524074259484253,16.581604710647582L16.14175879948425,2.442307710647583L96.90441579948425,2.442307710647583L110.79300079948425,16.586996710647583L97.73888879948426,31.557692710647583L16.14603079948425,31.557692710647583Z" fill-rule="evenodd" fill="#3199E0" fill-opacity="0.5"/></g><g><path d="M-0.000012931874999955184,16.519194L14.663814078125,33.823254L14.813593078125,34L99.039688078125,34L114.336550078125,16.518496L98.984596078125,0L14.822134078125,0L-0.000012931874999955184,16.519194ZM15.276944078125,33L1.3266727281250001,16.537973L15.268402078125,1L98.548790078125,1L112.990110078125,16.53867L98.585937078125,33L15.276944078125,33Z" fill-rule="evenodd" fill="#6CC3FF" fill-opacity="1"/></g><g><path d="M5.723031520843506,17.000000421295166L17.107360520843507,30.115385421295166L96.3760165208435,30.115385421295166L108.18198152084351,17.000000421295166L96.3760165208435,3.884615421295166L17.107360520843507,3.884615421295166L5.723031520843506,17.000000421295166Z" fill="url(#master_svg0_2_0036)" fill-opacity="1"/><path d="M5.0609425908435055,17.000000421295166L16.729767520843506,30.443140421295166L16.879277520843505,30.615385421295166L96.59867252084351,30.615385421295166L108.85472152084351,17.000000421295166L96.59867252084351,3.384615421295166L16.879277520843505,3.384615451295166L5.0609425908435055,17.000000421295166ZM17.335442520843507,29.615385421295166L6.385120810843506,17.000000421295166L17.335442520843507,4.384615421295166L96.15335952084351,4.384615421295166L107.5092515208435,17.000000421295166L96.15335952084351,29.615385421295166L17.335442520843507,29.615385421295166Z" fill-rule="evenodd" fill="#19A2FF" fill-opacity="1"/></g></g></g></svg>