<svg xmlns="http://www.w3.org/2000/svg" xmlns:xlink="http://www.w3.org/1999/xlink" fill="none" version="1.1" width="355" height="153.49998474121094" viewBox="0 0 355 153.49998474121094"><defs><filter id="master_svg0_2_567" filterUnits="objectBoundingBox" color-interpolation-filters="sRGB" x="0" y="0" width="1" height="1"><feFlood flood-opacity="0" result="BackgroundImageFix"/><feBlend mode="normal" in="SourceGraphic" in2="BackgroundImageFix" result="shape"/><feColorMatrix in="SourceAlpha" type="matrix" result="hardAlpha" values="0 0 0 0 0 0 0 0 0 0 0 0 0 0 0 0 0 0 127 0"/><feOffset dy="4" dx="0"/><feGaussianBlur stdDeviation="7.5"/><feComposite in2="hardAlpha" operator="arithmetic" k2="-1" k3="1"/><feColorMatrix type="matrix" values="0 0 0 0 0.10008428245782852 0 0 0 0 0.48124733567237854 0 0 0 0 0.9047619104385376 0 0 0 1 0"/><feBlend mode="normal" in2="shape" result="effect1_innerShadow"/></filter><linearGradient x1="0.5" y1="0" x2="0.5" y2="1" id="master_svg1_2_395"><stop offset="0%" stop-color="#0A2444" stop-opacity="1"/><stop offset="100%" stop-color="#0B2D4C" stop-opacity="1"/></linearGradient><linearGradient x1="0.5" y1="0" x2="0.5" y2="1" id="master_svg2_2_569"><stop offset="0%" stop-color="#5ACDFF" stop-opacity="1"/><stop offset="100%" stop-color="#3C9FFF" stop-opacity="1"/></linearGradient><filter id="master_svg3_2_2358" filterUnits="objectBoundingBox" color-interpolation-filters="sRGB" x="-0.2962962962962963" y="-0.8888888888888888" width="1.5925925925925926" height="2.7777777777777777"><feFlood flood-opacity="0" result="BackgroundImageFix"/><feBlend mode="normal" in="SourceGraphic" in2="BackgroundImageFix" result="shape"/><feGaussianBlur stdDeviation="1" result="effect1_foregroundBlur"/></filter></defs><g><g><g filter="url(#master_svg0_2_567)"><path d="M0.5,55.65217033825684L9.7338972,55.65217033825684L9.7338972,107.43960733825683L0.5,113.62318733825684L0.5,152.99998733825683L354.5,152.99998733825683L354.5,3.091787338256836L269.85925,3.091787338256836L263.70337,10.048307438256835L182.13721,10.048307438256835L176.75085,3.091787338256836L0.5,3.091787338256836L0.5,55.65217033825684Z" fill="url(#master_svg1_2_395)" fill-opacity="0.4000000059604645"/><path d="M0,153.49998733825683L355,153.49998733825683L355,2.591787338256836L269.63406,2.591787338256836L263.47815,9.548307438256835L182.38242,9.548307438256835L176.99608,2.5917873682568358L0,2.591787338256836L0,56.15217033825684L9.2338972,56.15217033825684L9.2338972,107.17267733825683L0,113.35625733825684L0,153.49998733825683ZM354,152.49998733825683L1,152.49998733825683L1,113.89011733825684L10.2338972,107.70653733825684L10.2338972,55.15217033825684L1,55.15217033825684L1,3.591787338256836L176.50565,3.591787338256836L181.89198,10.548307438256835L263.92856,10.548307438256835L270.08447,3.591787338256836L354,3.591787338256836L354,152.49998733825683Z" fill-rule="evenodd" fill="url(#master_svg2_2_569)" fill-opacity="1"/></g><g><g><path d="M2.0389825105667114,68.79226918793945L5.886439910566711,67.24637578793946L5.886439910566711,63.38164138793945L2.0389825105667114,64.92753508793945L2.0389825105667114,68.79226918793945Z" fill="#5AC1FF" fill-opacity="1"/></g><g><path d="M2.0389825105667114,78.06763120270996L5.886439910566711,76.52173780270996L5.886439910566711,72.65700340270996L2.0389825105667114,74.20289710270995L2.0389825105667114,78.06763120270996Z" fill="#5AC1FF" fill-opacity="1"/></g><g><path d="M2.0389825105667114,87.34299321748047L5.886439910566711,85.79709981748047L5.886439910566711,81.93236541748047L2.0389825105667114,83.47825911748046L2.0389825105667114,87.34299321748047Z" fill="#5AC1FF" fill-opacity="1"/></g><g><path d="M2.0389825105667114,96.61835523225098L5.886439910566711,95.07246183225098L5.886439910566711,91.20772743225098L2.0389825105667114,92.75362113225097L2.0389825105667114,96.61835523225098Z" fill="#5AC1FF" fill-opacity="1"/></g><g><path d="M2.0389825105667114,105.89371724702148L5.886439910566711,104.34782384702149L5.886439910566711,100.48308944702148L2.0389825105667114,102.02898314702148L2.0389825105667114,105.89371724702148Z" fill="#5AC1FF" fill-opacity="1"/></g></g><g><path d="M179.828857421875,0L185.984789321875,6.1835747L262.16444442187503,6.1835747L267.550888421875,0L179.828857421875,0Z" fill="#5AC1FF" fill-opacity="1"/></g></g><g><g><path d="M296.5,26L299,30.5L310,30.5L307,26L296.5,26Z" fill="#4BA1BA" fill-opacity="1"/></g><g filter="url(#master_svg3_2_2358)"><path d="M281.5,26L284,30.5L295,30.5L292,26L281.5,26Z" fill="#225D79" fill-opacity="1"/></g><g><path d="M312.5,26L315,30.5L326,30.5L323,26L312.5,26Z" fill="#7EF5FF" fill-opacity="1"/></g></g></g></svg>