<?xml version="1.0" standalone="no"?><!DOCTYPE svg PUBLIC "-//W3C//DTD SVG 1.1//EN" "http://www.w3.org/Graphics/SVG/1.1/DTD/svg11.dtd"><svg t="1759894023954" class="icon" viewBox="0 0 1024 1024" version="1.1" xmlns="http://www.w3.org/2000/svg" p-id="9839" xmlns:xlink="http://www.w3.org/1999/xlink" width="200" height="200"><path d="M492.252 61.256L86.505 467H167v485h637V467h94L492.252 61.256z m-182.827 480.92c-24.901 0-45.084-20.185-45.084-45.081 0-24.901 20.184-45.086 45.084-45.086 24.901 0 45.081 20.185 45.081 45.086 0 24.896-20.18 45.081-45.081 45.081zM683 618h-88v-69.823c0-18.63-7.386-30.257-9.438-34.881-2.052-4.624-9.759-6.929-16.748-6.929-7.88 0-22.214 2.811-24.325 8.416-2.142 5.62-12.49 17.767-12.49 36.442v171.208c0 17.916 8.755 29.603 10.896 35.074 2.111 5.457 10.756 8.193 18.19 8.193 7.136 0 20.109-2.736 22.309-8.222 2.2-5.471 11.604-18.333 11.604-38.568V678h88v8.943c0 38.152-5.146 65.212-10.528 81.166-5.382 15.968-18.526 29.945-36.963 41.958-18.437 12.014-41.794 18.02-68.795 18.02-28.101 0-51.541-5.1-69.77-15.255-18.199-10.17-36.704-24.25-42.621-42.241-5.916-17.99-15.321-45.036-15.321-81.165V581.735c0-26.569 7.201-46.493 9.015-59.77 1.815-13.277 10.395-26.079 19.435-38.36 9.011-12.296 23.099-21.975 39.127-29.037 15.998-7.062 35.19-10.587 56.006-10.587 28.219 0 51.925 5.457 70.273 16.37 18.377 10.913 33.085 24.518 38.854 40.813C677.479 517.46 683 542.81 683 577.215V618z" fill="#33B6FF" p-id="9840"></path></svg>