<?xml version="1.0" standalone="no"?><!DOCTYPE svg PUBLIC "-//W3C//DTD SVG 1.1//EN" "http://www.w3.org/Graphics/SVG/1.1/DTD/svg11.dtd"><svg t="1759894060665" class="icon" viewBox="0 0 1024 1024" version="1.1" xmlns="http://www.w3.org/2000/svg" p-id="10904" xmlns:xlink="http://www.w3.org/1999/xlink" width="200" height="200"><path d="M0.512 495.872a495.104 495.104 0 1 0 990.1568 9.1648A495.104 495.104 0 0 0 0.512 495.9232v-0.0512z" fill="#33B6FF" p-id="10905" data-spm-anchor-id="a313x.search_index.0.i12.67a83a81ljwpY4" class="selected"></path><path d="M466.176 375.04V289.8944H337.92a31.232 31.232 0 0 1-31.744-30.72c0-16.896 14.336-30.72 31.744-30.72h310.784c17.408 0 31.6416 13.824 31.6416 30.72 0 17.1008-14.1824 30.72-31.6416 30.72h-128.1024v85.0432h10.0864c11.9296 0 21.6064 9.4208 21.6064 20.992v50.0736l-117.8112-0.2048v-49.8688c0-11.52 9.6768-20.8896 21.6064-20.8896h10.0864z m-211.0464 326.2464v35.328c0 5.12-4.352 9.4208-9.7792 9.4208h-25.088a9.6256 9.6256 0 0 1-9.728-9.6256V510.72c0-5.3248 4.352-9.5744 9.7792-9.5744h25.0368c5.4272 0 9.7792 4.2496 9.7792 9.5744v45.9776h83.2c3.5328-47.3088 43.8272-84.5824 93.1328-84.5824h114.944c49.3056 0 89.6512 37.2736 93.1328 84.5824h83.4048v-46.336c0-5.12 4.1984-9.216 9.4208-9.216h25.6a9.216 9.216 0 0 1 9.4208 9.216v226.4576c0.2048 5.12-4.1472 9.1648-9.4208 9.1648h-25.6a9.2672 9.2672 0 0 1-9.3696-9.216v-35.4816h-89.6a93.3376 93.3376 0 0 1-86.9888 57.9072H431.4624a93.3376 93.3376 0 0 1-86.9376-57.856H255.1296z" fill="#FFFFFF" p-id="10906"></path></svg>